<svg width="22" height="22" viewBox="0 0 22 22" fill="none" xmlns="http://www.w3.org/2000/svg">
<path d="M10.6667 13.303C12.1227 13.303 13.303 12.1227 13.303 10.6667C13.303 9.21065 12.1227 8.03031 10.6667 8.03031C9.21064 8.03031 8.0303 9.21065 8.0303 10.6667C8.0303 12.1227 9.21064 13.303 10.6667 13.303Z" stroke="#C8C8C8" stroke-width="1.75758" stroke-linecap="round" stroke-linejoin="round"/>
<path d="M17.1697 13.303C17.0527 13.5681 17.0178 13.8621 17.0695 14.1472C17.1212 14.4323 17.2571 14.6953 17.4597 14.9024L17.5124 14.9552C17.6758 15.1184 17.8055 15.3122 17.8939 15.5256C17.9824 15.739 18.0279 15.9677 18.0279 16.1986C18.0279 16.4296 17.9824 16.6583 17.8939 16.8717C17.8055 17.0851 17.6758 17.2789 17.5124 17.4421C17.3492 17.6055 17.1554 17.7352 16.942 17.8236C16.7286 17.9121 16.4999 17.9576 16.2689 17.9576C16.038 17.9576 15.8093 17.9121 15.5959 17.8236C15.3825 17.7352 15.1887 17.6055 15.0255 17.4421L14.9727 17.3894C14.7656 17.1868 14.5026 17.0509 14.2175 16.9992C13.9324 16.9475 13.6384 16.9824 13.3733 17.0994C13.1134 17.2108 12.8917 17.3958 12.7356 17.6315C12.5795 17.8673 12.4957 18.1436 12.4945 18.4264V18.5758C12.4945 19.0419 12.3094 19.4889 11.9798 19.8186C11.6502 20.1482 11.2031 20.3333 10.737 20.3333C10.2708 20.3333 9.82379 20.1482 9.49418 19.8186C9.16457 19.4889 8.97939 19.0419 8.97939 18.5758V18.4967C8.97259 18.2058 8.87844 17.9237 8.70918 17.687C8.53992 17.4504 8.30337 17.2701 8.0303 17.1697C7.76525 17.0527 7.47122 17.0178 7.18615 17.0695C6.90108 17.1212 6.63802 17.2571 6.43091 17.4597L6.37818 17.5124C6.21495 17.6758 6.02111 17.8055 5.80774 17.8939C5.59438 17.9824 5.36567 18.0279 5.1347 18.0279C4.90372 18.0279 4.67502 17.9824 4.46165 17.8939C4.24828 17.8055 4.05444 17.6758 3.89121 17.5124C3.7278 17.3492 3.59816 17.1554 3.50971 16.942C3.42126 16.7286 3.37574 16.4999 3.37574 16.2689C3.37574 16.038 3.42126 15.8093 3.50971 15.5959C3.59816 15.3825 3.7278 15.1887 3.89121 15.0255L3.94394 14.9727C4.14653 14.7656 4.28244 14.5026 4.33413 14.2175C4.38581 13.9324 4.35092 13.6384 4.23394 13.3733C4.12254 13.1134 3.93757 12.8917 3.7018 12.7356C3.46603 12.5795 3.18975 12.4957 2.90697 12.4945H2.75758C2.29144 12.4945 1.84439 12.3094 1.51478 11.9798C1.18517 11.6502 1 11.2031 1 10.737C1 10.2708 1.18517 9.82379 1.51478 9.49418C1.84439 9.16457 2.29144 8.97939 2.75758 8.97939H2.83667C3.12754 8.97259 3.40964 8.87844 3.64629 8.70918C3.88295 8.53992 4.06321 8.30337 4.16364 8.0303C4.28062 7.76525 4.31551 7.47122 4.26382 7.18615C4.21213 6.90108 4.07623 6.63802 3.87364 6.43091L3.82091 6.37818C3.6575 6.21495 3.52786 6.02111 3.43941 5.80774C3.35096 5.59438 3.30544 5.36567 3.30544 5.1347C3.30544 4.90372 3.35096 4.67502 3.43941 4.46165C3.52786 4.24828 3.6575 4.05444 3.82091 3.89121C3.98414 3.7278 4.17798 3.59816 4.39135 3.50971C4.60471 3.42126 4.83342 3.37574 5.06439 3.37574C5.29537 3.37574 5.52407 3.42126 5.73744 3.50971C5.95081 3.59816 6.14465 3.7278 6.30788 3.89121L6.36061 3.94394C6.56772 4.14653 6.83077 4.28244 7.11585 4.33413C7.40092 4.38581 7.69494 4.35092 7.96 4.23394H8.0303C8.29022 4.12254 8.51189 3.93757 8.66803 3.7018C8.82417 3.46603 8.90796 3.18975 8.90909 2.90697V2.75758C8.90909 2.29144 9.09426 1.84439 9.42387 1.51478C9.75348 1.18517 10.2005 1 10.6667 1C11.1328 1 11.5799 1.18517 11.9095 1.51478C12.2391 1.84439 12.4242 2.29144 12.4242 2.75758V2.83667C12.4254 3.11945 12.5092 3.39573 12.6653 3.6315C12.8214 3.86727 13.0431 4.05224 13.303 4.16364C13.5681 4.28062 13.8621 4.31551 14.1472 4.26382C14.4323 4.21213 14.6953 4.07623 14.9024 3.87364L14.9552 3.82091C15.1184 3.6575 15.3122 3.52786 15.5256 3.43941C15.739 3.35096 15.9677 3.30544 16.1986 3.30544C16.4296 3.30544 16.6583 3.35096 16.8717 3.43941C17.0851 3.52786 17.2789 3.6575 17.4421 3.82091C17.6055 3.98414 17.7352 4.17798 17.8236 4.39135C17.9121 4.60471 17.9576 4.83342 17.9576 5.06439C17.9576 5.29537 17.9121 5.52407 17.8236 5.73744C17.7352 5.95081 17.6055 6.14465 17.4421 6.30788L17.3894 6.36061C17.1868 6.56772 17.0509 6.83077 16.9992 7.11585C16.9475 7.40092 16.9824 7.69494 17.0994 7.96V8.0303C17.2108 8.29022 17.3958 8.51189 17.6315 8.66803C17.8673 8.82417 18.1436 8.90796 18.4264 8.90909H18.5758C19.0419 8.90909 19.4889 9.09426 19.8186 9.42387C20.1482 9.75348 20.3333 10.2005 20.3333 10.6667C20.3333 11.1328 20.1482 11.5799 19.8186 11.9095C19.4889 12.2391 19.0419 12.4242 18.5758 12.4242H18.4967C18.2139 12.4254 17.9376 12.5092 17.7018 12.6653C17.4661 12.8214 17.2811 13.0431 17.1697 13.303Z" stroke="#C8C8C8" stroke-width="1.75758" stroke-linecap="round" stroke-linejoin="round"/>
</svg>
