<svg width="82" height="78" viewBox="0 0 82 78" fill="none" xmlns="http://www.w3.org/2000/svg">
<path d="M36.5165 2.84716C38.3506 -0.868682 43.6494 -0.86868 45.4835 2.84716L54.0518 20.2055C54.7795 21.6797 56.1854 22.702 57.8122 22.9398L76.9811 25.7416C81.0807 26.3408 82.7146 31.38 79.7466 34.2708L65.8839 47.773C64.7046 48.9218 64.1663 50.5774 64.4446 52.2001L67.7151 71.2692C68.4157 75.354 64.128 78.4688 60.4598 76.5397L43.3273 67.5299C41.8703 66.7637 40.1297 66.7637 38.6727 67.5299L21.5402 76.5397C17.872 78.4688 13.5843 75.354 14.2849 71.2692L17.5554 52.2001C17.8337 50.5774 17.2954 48.9217 16.1161 47.773L2.25339 34.2708C-0.714579 31.38 0.919344 26.3408 5.01892 25.7416L24.1878 22.9398C25.8146 22.702 27.2205 21.6797 27.9482 20.2055L36.5165 2.84716Z" fill="white"/>
<path d="M36.5165 2.84716C38.3506 -0.868682 43.6494 -0.86868 45.4835 2.84716L54.0518 20.2055C54.7795 21.6797 56.1854 22.702 57.8122 22.9398L76.9811 25.7416C81.0807 26.3408 82.7146 31.38 79.7466 34.2708L65.8839 47.773C64.7046 48.9218 64.1663 50.5774 64.4446 52.2001L67.7151 71.2692C68.4157 75.354 64.128 78.4688 60.4598 76.5397L43.3273 67.5299C41.8703 66.7637 40.1297 66.7637 38.6727 67.5299L21.5402 76.5397C17.872 78.4688 13.5843 75.354 14.2849 71.2692L17.5554 52.2001C17.8337 50.5774 17.2954 48.9217 16.1161 47.773L2.25339 34.2708C-0.714579 31.38 0.919344 26.3408 5.01892 25.7416L24.1878 22.9398C25.8146 22.702 27.2205 21.6797 27.9482 20.2055L36.5165 2.84716Z" stroke="white"/>
</svg>
